<svg viewBox="0 0 142.7571 143.83616766467063" xmlns:xlink="http://www.w3.org/1999/xlink" xmlns="http://www.w3.org/2000/svg" data-name="Livello 1" id="Livello_1" style="max-height: 500px" width="142.7571" height="143.83616766467063"><defs><style>.cls-1,.cls-7{fill:none;}.cls-2{clip-path:url(#clip-path);}.cls-3{fill:#f4c20e;}.cls-4{fill:#00965a;}.cls-5{fill:#e52f33;}.cls-6{fill:#2764ad;}.cls-7{stroke:#fff;stroke-width:2.98px;}.cls-8{fill:#fff;}.cls-9{fill:#cccbcb;}.cls-10{fill:#333;}.cls-11{fill:#4e4d4d;}</style><clipPath transform="translate(0 0)" id="clip-path"><rect height="142.98" width="428.7" class="cls-1"/></clipPath></defs><title>logo_4hse_payoff</title><g class="cls-2"><path transform="translate(0 0)" d="M71.12,141.49a69.62,69.62,0,0,0,69.62-69.62H71.12Z" class="cls-3"/><path transform="translate(0 0)" d="M140.74,71.88c0-38.88-31.17-70.39-69.62-70.39V71.88Z" class="cls-4"/><path transform="translate(0 0)" d="M1.49,71.88H71.12V1.49C32.66,1.49,1.49,33,1.49,71.88" class="cls-5"/><path transform="translate(0 0)" d="M1.49,71.87a69.62,69.62,0,0,0,69.63,69.62V71.87Z" class="cls-6"/><path transform="translate(0 0)" d="M71.12,141.49a69.62,69.62,0,0,0,69.62-69.62H71.12Z" class="cls-7"/><path transform="translate(0 0)" d="M71.12,141.49a69.62,69.62,0,0,0,69.62-69.62H71.12Z" class="cls-7"/><path transform="translate(0 0)" d="M140.74,71.88c0-38.88-31.17-70.39-69.62-70.39V71.88Z" class="cls-7"/><path transform="translate(0 0)" d="M140.74,71.88c0-38.88-31.17-70.39-69.62-70.39V71.88Z" class="cls-7"/><path transform="translate(0 0)" d="M1.49,71.88H71.12V1.49C32.66,1.49,1.49,33,1.49,71.88Z" class="cls-7"/><path transform="translate(0 0)" d="M1.49,71.88H71.12V1.49C32.66,1.49,1.49,33,1.49,71.88Z" class="cls-7"/><path transform="translate(0 0)" d="M1.49,71.87a69.62,69.62,0,0,0,69.63,69.62V71.87Z" class="cls-7"/><path transform="translate(0 0)" d="M1.49,71.87a69.62,69.62,0,0,0,69.63,69.62V71.87Z" class="cls-7"/><path transform="translate(0 0)" d="M107,62.07a18.12,18.12,0,0,0-4.32.53A29.48,29.48,0,0,0,47,56.19,21.69,21.69,0,1,0,38.93,98q.45,0,.9,0c.15,0,.3,0,.45,0h62.35a7.83,7.83,0,0,0,1.75-.2A17.77,17.77,0,0,0,107,98a18,18,0,0,0,0-35.92" class="cls-8"/><polyline points="155.33 98.05 291.88 98.05 428.7 98.05" class="cls-3"/><path transform="translate(0 0)" d="M155.33,98.05c11.39-.33,22.78-.47,34.17-.71l34.17-.41c22.78-.26,45.56-.3,68.35-.34s45.56.07,68.34.34l34.17.41c11.39.24,22.78.38,34.17.71-11.39.33-22.78.48-34.17.72l-34.17.41c-22.78.26-45.56.3-68.34.33s-45.57-.07-68.35-.34l-34.17-.41c-11.39-.24-22.78-.38-34.17-.71" class="cls-9"/><path transform="translate(0 0)" d="M164.42,132.34a6.4,6.4,0,0,1-3.18-.77,7.12,7.12,0,0,1-2.35-2,9.92,9.92,0,0,1-1.46-3,11.54,11.54,0,0,1-.5-3.41,12,12,0,0,1,.92-4.51,14,14,0,0,1,2.58-4.18,13.58,13.58,0,0,1,3.91-3,10.43,10.43,0,0,1,4.93-1.18,8,8,0,0,1,2.48.35,6,6,0,0,1,1.92,1,5.57,5.57,0,0,1,1.35,1.51,6.58,6.58,0,0,1,.79,1.91l-.62.19a5.82,5.82,0,0,0-1-2,5.53,5.53,0,0,0-1.46-1.33,5.73,5.73,0,0,0-1.78-.74,8.52,8.52,0,0,0-1.95-.23,9.56,9.56,0,0,0-4.59,1.12,12.84,12.84,0,0,0-3.64,2.9,13.66,13.66,0,0,0-2.39,4,11.82,11.82,0,0,0-.86,4.31,10.46,10.46,0,0,0,.51,3.3,8.58,8.58,0,0,0,1.42,2.72,6.93,6.93,0,0,0,2.24,1.86,6.29,6.29,0,0,0,2.95.69,9.34,9.34,0,0,0,2.15-.28,10.76,10.76,0,0,0,4.42-2.26,10.8,10.8,0,0,0,1.9-2.07l.56.16a10.72,10.72,0,0,1-1.91,2.18,12.08,12.08,0,0,1-2.34,1.59,12,12,0,0,1-2.54,1,10.49,10.49,0,0,1-2.48.32" class="cls-10"/><path transform="translate(0 0)" d="M178.63,132.31a1.79,1.79,0,0,1-1.35-.51,1.85,1.85,0,0,1-.49-1.36v-.31a1.11,1.11,0,0,1,.06-.34l4.27-20h.61l-4.27,20c0,.1,0,.19,0,.26a1.64,1.64,0,0,0,0,.23c0,1,.53,1.45,1.6,1.45a5.25,5.25,0,0,0,.8-.08,7.22,7.22,0,0,0,.86-.2l.09.49a6.57,6.57,0,0,1-1.06.26,6.68,6.68,0,0,1-1.06.11" class="cls-10"/><path transform="translate(0 0)" d="M189,132.46a5.16,5.16,0,0,1-2.34-.52,5.6,5.6,0,0,1-1.79-1.42,6.48,6.48,0,0,1-1.15-2.12,8.18,8.18,0,0,1-.4-2.6,9,9,0,0,1,.79-3.71,11.22,11.22,0,0,1,2.11-3.15,10.15,10.15,0,0,1,3-2.16,7.41,7.41,0,0,1,3.33-.8,5,5,0,0,1,2.3.52,5.39,5.39,0,0,1,1.78,1.44,6.92,6.92,0,0,1,1.15,2.15,8,8,0,0,1,.42,2.61,8.86,8.86,0,0,1-.8,3.67,11.23,11.23,0,0,1-2.09,3.12,10.44,10.44,0,0,1-2.93,2.16,7.49,7.49,0,0,1-3.33.81m.09-.61a6.83,6.83,0,0,0,3.05-.75,9.66,9.66,0,0,0,2.72-2,10,10,0,0,0,1.93-2.88,8.18,8.18,0,0,0,.74-3.43,7.56,7.56,0,0,0-.38-2.41,6.59,6.59,0,0,0-1.06-2,5,5,0,0,0-1.63-1.34,4.56,4.56,0,0,0-2.09-.49,6.79,6.79,0,0,0-3,.75,9.78,9.78,0,0,0-2.7,2,10.71,10.71,0,0,0-1.95,2.93,8.27,8.27,0,0,0-.75,3.44,7.46,7.46,0,0,0,.37,2.38,5.74,5.74,0,0,0,1.06,1.95,5,5,0,0,0,1.63,1.3,4.51,4.51,0,0,0,2.1.48" class="cls-10"/><path transform="translate(0 0)" d="M204.76,132.46q-3.69,0-3.69-4.26a15.08,15.08,0,0,1,.37-3l1.91-8.94H204l-1.9,8.94a14.17,14.17,0,0,0-.37,3q0,3.72,3.22,3.72a6.54,6.54,0,0,0,2.23-.41,9.9,9.9,0,0,0,2.15-1.14,10.33,10.33,0,0,0,1.9-1.74,10.2,10.2,0,0,0,1.46-2.21l2.15-10.13h.61l-2.95,13.88a6,6,0,0,1-.14.64,2.37,2.37,0,0,0-.07.37c0,.29.13.43.4.43l-.16.62c-.55,0-.82-.31-.82-.92a1.26,1.26,0,0,1,0-.16c0-.08,0-.23.08-.44s.1-.53.18-.93.2-.93.34-1.61a11.11,11.11,0,0,1-1.58,1.82,10.93,10.93,0,0,1-1.86,1.36,9.31,9.31,0,0,1-2,.88,7.37,7.37,0,0,1-2.05.3" class="cls-10"/><path transform="translate(0 0)" d="M223.24,132.46a5.24,5.24,0,0,1-2.43-.56,5.63,5.63,0,0,1-1.81-1.51,6.71,6.71,0,0,1-1.12-2.16,8.7,8.7,0,0,1-.38-2.55,8.94,8.94,0,0,1,.74-3.58,10.93,10.93,0,0,1,2-3.1,9.74,9.74,0,0,1,2.87-2.19,7.24,7.24,0,0,1,3.37-.83,5.55,5.55,0,0,1,1.91.32,5.44,5.44,0,0,1,1.51.86,5.8,5.8,0,0,1,1.16,1.26,6.55,6.55,0,0,1,.76,1.52L234,109.75h.65l-4.52,21.09a.51.51,0,0,0,0,.17v.13c0,.27.13.4.37.4l-.12.62a1.19,1.19,0,0,1-.37-.06.81.81,0,0,1-.49-.86v-.11a2.52,2.52,0,0,1,.05-.31c0-.15.07-.38.14-.69s.15-.74.27-1.29a10.46,10.46,0,0,1-1.44,1.46,11.54,11.54,0,0,1-1.67,1.15,8.11,8.11,0,0,1-1.79.75,6.1,6.1,0,0,1-1.76.26m.12-.61a5.67,5.67,0,0,0,2-.4,10.35,10.35,0,0,0,2.1-1.06,8.38,8.38,0,0,0,1.8-1.55A4.79,4.79,0,0,0,230.3,127l1.23-5.74a4.85,4.85,0,0,0-.6-1.8,5.69,5.69,0,0,0-1.2-1.47,6,6,0,0,0-1.59-1,4.57,4.57,0,0,0-1.8-.37,6.51,6.51,0,0,0-3.19.82,9.23,9.23,0,0,0-2.63,2.1,10.1,10.1,0,0,0-1.76,2.9,8.56,8.56,0,0,0-.65,3.21,7.81,7.81,0,0,0,.37,2.39,6.06,6.06,0,0,0,1.06,2,5,5,0,0,0,1.66,1.35,4.53,4.53,0,0,0,2.16.51" class="cls-10"/><path transform="translate(0 0)" d="M249.46,132.31a10.26,10.26,0,0,1-4.27-.81,7.9,7.9,0,0,1-3.07-2.57l.52-.4a7.34,7.34,0,0,0,2.9,2.49,9.75,9.75,0,0,0,4.07.77,12.3,12.3,0,0,0,3.22-.39,7.24,7.24,0,0,0,2.46-1.12,5,5,0,0,0,1.56-1.82,5.53,5.53,0,0,0,.56-2.54,3.44,3.44,0,0,0-.37-1.61,3.3,3.3,0,0,0-1.11-1.19,7.34,7.34,0,0,0-1.84-.88c-.73-.25-1.59-.48-2.58-.71s-1.82-.42-2.58-.64a7.89,7.89,0,0,1-1.91-.83,3.39,3.39,0,0,1-1.2-1.21,3.46,3.46,0,0,1-.42-1.77,6.4,6.4,0,0,1,.63-2.87,6.19,6.19,0,0,1,1.78-2.16,8.29,8.29,0,0,1,2.74-1.37,11.91,11.91,0,0,1,3.48-.47,8.27,8.27,0,0,1,3.35.59,5.3,5.3,0,0,1,2.27,2l-.49.44a4.74,4.74,0,0,0-2.14-2,7.86,7.86,0,0,0-3-.51,12,12,0,0,0-3.62.48,6.54,6.54,0,0,0-2.46,1.31,5.29,5.29,0,0,0-1.4,2,6.61,6.61,0,0,0-.44,2.41,3,3,0,0,0,.34,1.5,2.81,2.81,0,0,0,1,1.06,7.18,7.18,0,0,0,1.75.79c.7.22,1.52.44,2.47.64s1.83.46,2.62.71a8.28,8.28,0,0,1,2,.9,4,4,0,0,1,1.3,1.32,3.63,3.63,0,0,1,.46,1.89,6,6,0,0,1-.61,2.75,5.92,5.92,0,0,1-1.74,2.06,8.12,8.12,0,0,1-2.71,1.29,13.43,13.43,0,0,1-3.53.44" class="cls-10"/><path transform="translate(0 0)" d="M266.56,132.46a5,5,0,0,1-2.38-.56,5.59,5.59,0,0,1-1.8-1.51,6.71,6.71,0,0,1-1.12-2.16,8.6,8.6,0,0,1-.38-2.52,9.15,9.15,0,0,1,.73-3.59,11,11,0,0,1,2-3.12,10,10,0,0,1,2.86-2.19,7.08,7.08,0,0,1,3.33-.83,5.7,5.7,0,0,1,2,.32,5.42,5.42,0,0,1,1.53.86,5.8,5.8,0,0,1,1.16,1.26,6.55,6.55,0,0,1,.76,1.52l.8-3.72h.65l-3.13,14.59a.94.94,0,0,0-.07.37.33.33,0,0,0,.37.36l-.12.62a1,1,0,0,1-.28,0,.81.81,0,0,1-.58-.86,1,1,0,0,1,0-.16c0-.06,0-.16.07-.32l.13-.69c.07-.31.15-.73.25-1.26a10.46,10.46,0,0,1-1.44,1.46,11.11,11.11,0,0,1-1.68,1.15,7.92,7.92,0,0,1-1.79.75,6.44,6.44,0,0,1-1.81.26m.06-.61a6.21,6.21,0,0,0,2.1-.4,9.66,9.66,0,0,0,2.13-1.07,9.24,9.24,0,0,0,1.79-1.55,4.82,4.82,0,0,0,1-1.86l1.23-5.74a5.14,5.14,0,0,0-.57-1.75,5.67,5.67,0,0,0-1.15-1.48,5.6,5.6,0,0,0-1.64-1,5.23,5.23,0,0,0-2-.39,6.1,6.1,0,0,0-3,.82,9,9,0,0,0-2.56,2.13,10.87,10.87,0,0,0-1.77,2.95,8.51,8.51,0,0,0-.66,3.22,6.91,6.91,0,0,0,.39,2.33,6.14,6.14,0,0,0,1.07,2,5.15,5.15,0,0,0,1.63,1.35,4.17,4.17,0,0,0,2,.51" class="cls-10"/><path transform="translate(0 0)" d="M282,116.84h-2.18l.12-.62h2.21l.13-.64a9.55,9.55,0,0,1,2-4.53,4.3,4.3,0,0,1,3.32-1.61,4,4,0,0,1,1.53.29,2.08,2.08,0,0,1,1,.75l-.55.37a1.82,1.82,0,0,0-.84-.6,3.39,3.39,0,0,0-1.25-.23,3.68,3.68,0,0,0-2.87,1.43,8.93,8.93,0,0,0-1.73,4.13l-.12.64h4.48l-.12.62h-4.52L278,138.69h-.62Z" class="cls-10"/><path transform="translate(0 0)" d="M292.9,132.46a5.56,5.56,0,0,1-2.46-.53,5.38,5.38,0,0,1-1.81-1.46,6.9,6.9,0,0,1-1.14-2.15,8.59,8.59,0,0,1-.39-2.61,9.44,9.44,0,0,1,.7-3.56,10.27,10.27,0,0,1,1.95-3.12,10,10,0,0,1,2.93-2.21,8.19,8.19,0,0,1,3.69-.84,5.32,5.32,0,0,1,1.61.27,5.14,5.14,0,0,1,1.52.8,4.33,4.33,0,0,1,1.12,1.31,3.69,3.69,0,0,1,.44,1.82q0,4.36-8,4.36l-2.39,0c-.82,0-1.75-.06-2.8-.12a9.32,9.32,0,0,0-.09,1.29,8.06,8.06,0,0,0,.34,2.38,5.61,5.61,0,0,0,1,2,4.75,4.75,0,0,0,1.69,1.34,5.22,5.22,0,0,0,2.33.49,6.25,6.25,0,0,0,1.72-.26,8.59,8.59,0,0,0,1.72-.72,7.28,7.28,0,0,0,1.52-1.14,6.65,6.65,0,0,0,1.15-1.5l.58.18a7.37,7.37,0,0,1-1.27,1.67,7.59,7.59,0,0,1-1.66,1.28,8.14,8.14,0,0,1-1.92.81,7.15,7.15,0,0,1-2.05.29m3.34-15.87a6.94,6.94,0,0,0-2.85.6,8.81,8.81,0,0,0-2.44,1.6,10,10,0,0,0-1.87,2.3,9.52,9.52,0,0,0-1.13,2.69c1.05.06,2,.1,2.78.12l2.38,0a17.46,17.46,0,0,0,3.42-.28,7,7,0,0,0,2.26-.78,3.37,3.37,0,0,0,1.25-1.2,3.12,3.12,0,0,0,.38-1.52,3,3,0,0,0-.4-1.59,3.63,3.63,0,0,0-1-1.12,4.22,4.22,0,0,0-1.35-.65,5.65,5.65,0,0,0-1.42-.2" class="cls-10"/><path transform="translate(0 0)" d="M305.64,132.31a2.32,2.32,0,0,1-1.57-.52,1.76,1.76,0,0,1-.61-1.41,2,2,0,0,1,0-.25c0-.08,0-.17,0-.28l2.76-13H304.1l.13-.62h2.21l1.16-5.55h.62l-1.17,5.55h3.62l-.12.62H306.9l-2.46,11.45c-.12.57-.21,1-.26,1.24a3.54,3.54,0,0,0-.08.6,1.42,1.42,0,0,0,.49,1.17,1.89,1.89,0,0,0,1.2.4,4.19,4.19,0,0,0,.95-.11,5,5,0,0,0,.82-.25,5.66,5.66,0,0,0,.58-.26l.26-.15.22.49a5.19,5.19,0,0,1-.91.46c-.28.1-.59.2-.95.29a4.58,4.58,0,0,1-1.12.14" class="cls-10"/><path transform="translate(0 0)" d="M309.47,138.51a7,7,0,0,0,1.58-.49,4.63,4.63,0,0,0,1.22-.81,8,8,0,0,0,1.09-1.28c.35-.51.77-1.12,1.24-1.84l1.26-1.93-3.65-15.94h.67l3.44,15.17,1.78-2.82c1-1.54,1.78-2.87,2.44-4s1.23-2.15,1.69-3.08.85-1.81,1.17-2.64.6-1.7.87-2.63h.65c-.29,1-.59,1.9-.89,2.75a25.87,25.87,0,0,1-1.17,2.69c-.47.94-1.05,2-1.74,3.16s-1.54,2.56-2.56,4.17L316,133c-.73,1.14-1.36,2.09-1.88,2.83a10.7,10.7,0,0,1-1.51,1.78,5.39,5.39,0,0,1-1.44,1,6.82,6.82,0,0,1-1.68.47Z" class="cls-10"/><path transform="translate(0 0)" d="M339.31,132.31a10.21,10.21,0,0,1-4.26-.81,7.9,7.9,0,0,1-3.07-2.57l.52-.4a7.27,7.27,0,0,0,2.9,2.49,9.72,9.72,0,0,0,4.07.77,12.35,12.35,0,0,0,3.22-.39,7.33,7.33,0,0,0,2.46-1.12,5.14,5.14,0,0,0,1.56-1.82,5.53,5.53,0,0,0,.55-2.54,3.44,3.44,0,0,0-.36-1.61,3.39,3.39,0,0,0-1.11-1.19,7.34,7.34,0,0,0-1.84-.88c-.74-.25-1.6-.48-2.58-.71s-1.82-.42-2.58-.64a8.15,8.15,0,0,1-1.92-.83,3.27,3.27,0,0,1-1.61-3,6.4,6.4,0,0,1,.63-2.87,6.08,6.08,0,0,1,1.78-2.16,8.34,8.34,0,0,1,2.73-1.37,12,12,0,0,1,3.49-.47,8.22,8.22,0,0,1,3.34.59,5.27,5.27,0,0,1,2.28,2l-.5.44a4.67,4.67,0,0,0-2.13-2,7.93,7.93,0,0,0-3.05-.51,12,12,0,0,0-3.62.48,6.54,6.54,0,0,0-2.46,1.31,5.17,5.17,0,0,0-1.4,2,6.41,6.41,0,0,0-.44,2.41,3.11,3.11,0,0,0,.33,1.5,3,3,0,0,0,1,1.06,7.55,7.55,0,0,0,1.75.79c.71.22,1.53.44,2.47.64s1.84.46,2.63.71a8.28,8.28,0,0,1,2,.9,4,4,0,0,1,1.3,1.32,3.63,3.63,0,0,1,.46,1.89,6,6,0,0,1-.61,2.75,5.92,5.92,0,0,1-1.74,2.06,8.17,8.17,0,0,1-2.72,1.29,13.38,13.38,0,0,1-3.53.44" class="cls-10"/><path transform="translate(0 0)" d="M348.31,138.51a7.19,7.19,0,0,0,1.58-.49,4.58,4.58,0,0,0,1.21-.81,8,8,0,0,0,1.09-1.28c.36-.51.77-1.12,1.25-1.84l1.25-1.93L351,116.22h.68l3.44,15.17,1.78-2.82q1.44-2.31,2.44-4c.66-1.12,1.22-2.15,1.68-3.08a28.74,28.74,0,0,0,1.17-2.64c.32-.83.61-1.7.88-2.63h.64c-.29,1-.58,1.9-.89,2.75a25.87,25.87,0,0,1-1.17,2.69c-.47.94-1.05,2-1.73,3.16s-1.54,2.56-2.56,4.17l-2.52,4c-.74,1.14-1.37,2.09-1.89,2.83a10.24,10.24,0,0,1-1.5,1.78,5.59,5.59,0,0,1-1.45,1,6.86,6.86,0,0,1-1.67.47Z" class="cls-10"/><path transform="translate(0 0)" d="M368.45,132.46a7,7,0,0,1-3.07-.63,5.22,5.22,0,0,1-2.18-2l.52-.39a6.26,6.26,0,0,0,2.07,1.78,6.1,6.1,0,0,0,2.78.58,8.2,8.2,0,0,0,2.33-.32,6.54,6.54,0,0,0,1.88-.89,4.32,4.32,0,0,0,1.26-1.4,3.8,3.8,0,0,0,.46-1.84,2.1,2.1,0,0,0-.31-1.15,2.62,2.62,0,0,0-.89-.82,7.77,7.77,0,0,0-1.43-.61c-.56-.18-1.2-.37-1.92-.55s-1.27-.33-1.78-.5a6.11,6.11,0,0,1-1.3-.56,2.33,2.33,0,0,1-.82-.8,2.37,2.37,0,0,1-.27-1.18,4.79,4.79,0,0,1,.54-2.32,4.55,4.55,0,0,1,1.44-1.64,6.68,6.68,0,0,1,2.05-1,9,9,0,0,1,2.38-.32,6,6,0,0,1,3,.66,3,3,0,0,1,1.46,1.64l-.59.25a2.48,2.48,0,0,0-1.5-1.45,6.82,6.82,0,0,0-2.61-.49,8.27,8.27,0,0,0-2.07.26,5.33,5.33,0,0,0-1.77.82,4.12,4.12,0,0,0-1.23,1.39,4.19,4.19,0,0,0-.46,2,1.75,1.75,0,0,0,.92,1.66,5,5,0,0,0,1.15.49c.47.15,1,.3,1.62.46s1.44.4,2.07.59a6.73,6.73,0,0,1,1.59.67,3.21,3.21,0,0,1,1,.94,2.42,2.42,0,0,1,.35,1.33,4.54,4.54,0,0,1-.51,2.14,5.16,5.16,0,0,1-1.39,1.67,6.64,6.64,0,0,1-2.12,1.09,8.79,8.79,0,0,1-2.67.38" class="cls-10"/><path transform="translate(0 0)" d="M381,132.31a2.32,2.32,0,0,1-1.57-.52,1.76,1.76,0,0,1-.61-1.41,2,2,0,0,1,0-.25c0-.08,0-.17.05-.28l2.76-13H379.5l.12-.62h2.21l1.17-5.55h.61l-1.16,5.55h3.62l-.12.62H382.3l-2.46,11.45c-.12.57-.21,1-.26,1.24a3.54,3.54,0,0,0-.08.6,1.42,1.42,0,0,0,.49,1.17,1.89,1.89,0,0,0,1.2.4,4.26,4.26,0,0,0,.95-.11,4.58,4.58,0,0,0,.81-.25,6,6,0,0,0,.59-.26l.26-.15.21.49a5.13,5.13,0,0,1-.9.46c-.28.1-.6.2-.95.29a4.64,4.64,0,0,1-1.12.14" class="cls-10"/><path transform="translate(0 0)" d="M392.36,132.46a5.48,5.48,0,0,1-2.45-.53,5.38,5.38,0,0,1-1.81-1.46,6.9,6.9,0,0,1-1.14-2.15,8.29,8.29,0,0,1-.4-2.61,9.46,9.46,0,0,1,.71-3.56,10.27,10.27,0,0,1,2-3.12,9.84,9.84,0,0,1,2.93-2.21,8.12,8.12,0,0,1,3.68-.84,5.38,5.38,0,0,1,1.62.27,5,5,0,0,1,1.51.8,4.36,4.36,0,0,1,1.13,1.31,3.69,3.69,0,0,1,.44,1.82q0,4.36-8,4.36l-2.4,0q-1.23,0-2.79-.12a9.32,9.32,0,0,0-.09,1.29,8.4,8.4,0,0,0,.33,2.38,5.8,5.8,0,0,0,1,2,4.75,4.75,0,0,0,1.69,1.34,5.22,5.22,0,0,0,2.33.49,6.3,6.3,0,0,0,1.72-.26,8.59,8.59,0,0,0,1.72-.72,7.28,7.28,0,0,0,1.52-1.14,6.65,6.65,0,0,0,1.15-1.5l.58.18a7.68,7.68,0,0,1-1.27,1.67,7.84,7.84,0,0,1-1.66,1.28,8.14,8.14,0,0,1-1.92.81,7.17,7.17,0,0,1-2.06.29m3.35-15.87a6.94,6.94,0,0,0-2.85.6,8.86,8.86,0,0,0-2.45,1.6,10.24,10.24,0,0,0-1.87,2.3,9.79,9.79,0,0,0-1.12,2.69c1.05.06,2,.1,2.78.12l2.38,0a17.46,17.46,0,0,0,3.42-.28,7.08,7.08,0,0,0,2.26-.78,3.26,3.26,0,0,0,1.24-1.2,3,3,0,0,0,.39-1.52,3.13,3.13,0,0,0-.4-1.59,3.66,3.66,0,0,0-1-1.12,4.22,4.22,0,0,0-1.35-.65,5.51,5.51,0,0,0-1.41-.2" class="cls-10"/><path transform="translate(0 0)" d="M405.5,116.22h.62l-.86,4.12a11.6,11.6,0,0,1,3.21-3.23A6.56,6.56,0,0,1,412,116a3.39,3.39,0,0,1,2.67,1.07,4.37,4.37,0,0,1,1,3v.37a2.33,2.33,0,0,1,0,.37,9.29,9.29,0,0,1,1.4-2.07,8.52,8.52,0,0,1,1.75-1.52,7.9,7.9,0,0,1,2-.93,7,7,0,0,1,2-.3q3.47,0,3.47,4a14.13,14.13,0,0,1-.1,1.5,16.14,16.14,0,0,1-.3,1.78l-1.88,8.88h-.61l1.87-8.88a15.22,15.22,0,0,0,.37-3.1q0-3.59-3-3.59a5.6,5.6,0,0,0-2.07.4,7.43,7.43,0,0,0-2,1.14,10.11,10.11,0,0,0-1.7,1.75,11.66,11.66,0,0,0-1.37,2.24l-2.12,10h-.61l1.87-8.88a16.67,16.67,0,0,0,.31-1.75,12.91,12.91,0,0,0,.09-1.44q0-3.5-3-3.5a5.62,5.62,0,0,0-2.09.4,7.88,7.88,0,0,0-1.93,1.12,10.13,10.13,0,0,0-1.72,1.74,11.69,11.69,0,0,0-1.38,2.24l-2.15,10.07h-.61Z" class="cls-10"/><path transform="translate(0 0)" d="M201.06,6.14h4.35v58h8.34v4.17h-8.34V87.58h-4.35V68.26H158.25v-.19ZM166.21,63.9v.19h34.85V13.33Z" class="cls-11"/><polygon points="223.79 44.96 279.28 44.96 279.28 6.13 283.44 6.13 283.44 87.58 279.28 87.58 279.28 49.32 223.79 49.32 223.79 87.58 219.43 87.58 219.43 6.13 223.79 6.13 223.79 44.96" class="cls-11"/><path transform="translate(0 0)" d="M311.1,6.32H353v4.17H314.51q-8.86,0-11.93,1.9-8.71,4.77-8.72,15.53,0,10.21,9.47,15.53a19.23,19.23,0,0,0,6.25,1.32h25.95q3.84,0,9.66,4a22.51,22.51,0,0,1,7.58,17.43q0,12.69-10.8,19.12a20,20,0,0,1-8.33,2.28H289.13v-4H327.2q9.09,0,11.74-1.52,9.46-4.59,9.47-16.47,0-3.75-2.84-9.28-2.85-4.69-9.28-6.82l-3.6-.57H307.31q-6.44,0-12.69-6.44-5.12-6.72-5.11-13.83v-.94a21.8,21.8,0,0,1,8.71-17.81,24.49,24.49,0,0,1,12.88-3.6" class="cls-11"/><path transform="translate(0 0)" d="M400.5,6.14h22.16v4.54H399.93q-17.9,0-29.74,15a37.6,37.6,0,0,0-6.63,16.48L363.18,45h40.91v4.36H363.18a41.74,41.74,0,0,0,6.44,18.37A36.24,36.24,0,0,0,386.1,80.76q5.59,2.65,15.53,2.65h21v4.17H398.6q-16.75,0-30.11-14a46.41,46.41,0,0,1-6.82-11.17,49.27,49.27,0,0,1-3-15.53q0-8.34,4.54-18.56A42.48,42.48,0,0,1,383.26,9.55,44.3,44.3,0,0,1,400.5,6.14" class="cls-11"/></g></svg>