<?xml version="1.0" encoding="UTF-8" standalone="no"?>
<svg
   id="Livello_1"
   data-name="Livello 1"
   viewBox="0 0 428.7 142.98"
   version="1.1"
   sodipodi:docname="logo-light.svg"
   inkscape:version="1.4.2 (2aeb623e1d, 2025-05-12)"
   xml:space="preserve"
   xmlns:inkscape="http://www.inkscape.org/namespaces/inkscape"
   xmlns:sodipodi="http://sodipodi.sourceforge.net/DTD/sodipodi-0.dtd"
   xmlns="http://www.w3.org/2000/svg"
   xmlns:svg="http://www.w3.org/2000/svg"
   xmlns:rdf="http://www.w3.org/1999/02/22-rdf-syntax-ns#"
   xmlns:cc="http://creativecommons.org/ns#"
   xmlns:dc="http://purl.org/dc/elements/1.1/"><sodipodi:namedview
     id="namedview34"
     pagecolor="#ffffff"
     bordercolor="#000000"
     borderopacity="0.25"
     inkscape:showpageshadow="2"
     inkscape:pageopacity="0.0"
     inkscape:pagecheckerboard="0"
     inkscape:deskcolor="#d1d1d1"
     inkscape:zoom="1.5768603"
     inkscape:cx="189.30022"
     inkscape:cy="174.0801"
     inkscape:window-width="1920"
     inkscape:window-height="1011"
     inkscape:window-x="0"
     inkscape:window-y="0"
     inkscape:window-maximized="1"
     inkscape:current-layer="g34" /><defs
     id="defs1"><style
       id="style1">.cls-1,.cls-7{fill:none;}.cls-2{clip-path:url(#clip-path);}.cls-3{fill:#f4c20e;}.cls-4{fill:#00965a;}.cls-5{fill:#e52f33;}.cls-6{fill:#2764ad;}.cls-7{stroke:#fff;stroke-width:2.98px;}.cls-8{fill:#fff;}.cls-9{fill:#cccbcb;}.cls-10{fill:#333;}.cls-11{fill:#4e4d4d;}</style><clipPath
       id="clip-path"
       transform="translate(0 0)"><rect
         class="cls-1"
         width="428.7"
         height="142.98"
         id="rect1" /></clipPath></defs><title
     id="title1">logo_4hse_payoff</title><g
     class="cls-2"
     clip-path="url(#clip-path)"
     id="g34"><path
       class="cls-3"
       d="M 64.841517,134.91587 A 62.597942,62.412564 0 0 0 127.43945,72.503301 H 64.841517 Z"
       id="path1"
       style="stroke-width:0.897805" /><path
       class="cls-4"
       d="m 127.43945,72.512266 c 0,-34.854934 -28.026102,-63.1028495 -62.597933,-63.1028495 V 72.512266 Z"
       id="path2"
       style="stroke-width:0.897805" /><path
       class="cls-5"
       d="M 2.2345836,72.512266 H 64.841517 V 9.4094165 c -34.580822,0 -62.6069334,28.2479155 -62.6069334,63.1028495"
       id="path3"
       style="stroke-width:0.897805" /><path
       class="cls-6"
       d="M 2.2345836,72.503301 A 62.597942,62.412564 0 0 0 64.841517,134.91587 V 72.503301 Z"
       id="path4"
       style="stroke-width:0.897805" /><path
       class="cls-7"
       d="M 64.841517,134.91587 A 62.597942,62.412564 0 0 0 127.43945,72.503301 H 64.841517 Z"
       id="path5" /><path
       class="cls-7"
       d="M 64.841517,134.91587 A 62.597942,62.412564 0 0 0 127.43945,72.503301 H 64.841517 Z"
       id="path6" /><path
       class="cls-7"
       d="m 127.43945,72.512266 c 0,-34.854934 -28.026102,-63.1028495 -62.597933,-63.1028495 V 72.512266 Z"
       id="path7" /><path
       class="cls-7"
       d="m 127.43945,72.512266 c 0,-34.854934 -28.026102,-63.1028495 -62.597933,-63.1028495 V 72.512266 Z"
       id="path8" /><path
       class="cls-7"
       d="M 2.2345836,72.512266 H 64.841517 V 9.4094165 c -34.580822,0 -62.6069334,28.2479155 -62.6069334,63.1028495 z"
       id="path9" /><path
       class="cls-7"
       d="M 2.2345836,72.512266 H 64.841517 V 9.4094165 c -34.580822,0 -62.6069334,28.2479155 -62.6069334,63.1028495 z"
       id="path10" /><path
       class="cls-7"
       d="M 2.2345836,72.503301 A 62.597942,62.412564 0 0 0 64.841517,134.91587 V 72.503301 Z"
       id="path11" /><path
       class="cls-7"
       d="M 2.2345836,72.503301 A 62.597942,62.412564 0 0 0 64.841517,134.91587 V 72.503301 Z"
       id="path12" /><path
       class="cls-8"
       d="m 97.102565,63.71785 a 16.292369,16.24412 0 0 0 -3.884274,0.475131 26.506569,26.428072 0 0 0 -50.063967,-5.746402 19.502289,19.444535 0 1 0 -7.256038,37.481604 q 0.404611,0 0.809223,0 c 0.134871,0 0.269741,0 0.404612,0 h 56.061214 a 7.0402454,7.0193964 0 0 0 1.57349,-0.179295 15.977671,15.930354 0 0 0 2.35574,0.179295 16.184472,16.136543 0 0 0 0,-32.201369"
       id="path13"
       style="stroke-width:0.897805" /><path
       class="cls-11"
       d="m 194.78202,30.355061 h 4.35 v 58 h 8.34 v 4.17 h -8.34 v 19.269999 h -4.35 V 92.475061 h -42.81 v -0.19 z m -34.85,57.76 v 0.19 h 34.85 v -50.76 z"
       id="path32"
       style="fill:#4e4d4d;fill-opacity:1" /><polygon
       class="cls-11"
       points="283.44,87.58 279.28,87.58 279.28,49.32 223.79,49.32 223.79,87.58 219.43,87.58 219.43,6.13 223.79,6.13 223.79,44.96 279.28,44.96 279.28,6.13 283.44,6.13 "
       id="polygon32"
       style="fill:#4e4d4d;fill-opacity:1"
       transform="translate(-6.2779788,24.215061)" /><path
       class="cls-11"
       d="m 304.82202,30.535061 h 41.9 v 4.17 h -38.49 q -8.86,0 -11.93,1.9 -8.71,4.77 -8.72,15.53 0,10.21 9.47,15.53 a 19.23,19.23 0 0 0 6.25,1.32 h 25.95 q 3.84,0 9.66,4 a 22.51,22.51 0 0 1 7.58,17.43 q 0,12.689999 -10.8,19.119999 a 20,20 0 0 1 -8.33,2.28 h -44.51 v -4 h 38.07 q 9.09,0 11.74,-1.52 9.46,-4.59 9.47,-16.469999 0,-3.75 -2.84,-9.28 -2.85,-4.69 -9.28,-6.82 l -3.6,-0.57 h -25.38 q -6.44,0 -12.69,-6.44 -5.12,-6.72 -5.11,-13.83 v -0.94 a 21.8,21.8 0 0 1 8.71,-17.81 24.49,24.49 0 0 1 12.88,-3.6"
       id="path33"
       style="fill:#4e4d4d;fill-opacity:1" /><path
       class="cls-11"
       d="m 394.22202,30.355061 h 22.16 v 4.54 h -22.73 q -17.9,0 -29.74,15 a 37.6,37.6 0 0 0 -6.63,16.48 l -0.38,2.84 h 40.91 v 4.36 h -40.91 a 41.74,41.74 0 0 0 6.44,18.37 36.24,36.24 0 0 0 16.48,13.029999 q 5.59,2.65 15.53,2.65 h 21 v 4.17 h -24.03 q -16.75,0 -30.11,-13.999999 a 46.41,46.41 0 0 1 -6.82,-11.17 49.27,49.27 0 0 1 -3,-15.53 q 0,-8.34 4.54,-18.56 a 42.48,42.48 0 0 1 20.05,-18.77 44.3,44.3 0 0 1 17.24,-3.41"
       id="path34"
       style="fill:#4e4d4d;fill-opacity:1" /></g><metadata
     id="metadata1"><rdf:RDF><cc:Work
         rdf:about=""><dc:title>logo_4hse_payoff</dc:title></cc:Work></rdf:RDF></metadata></svg>
